<svg width="155" height="38" viewBox="0 0 155 38" fill="none" xmlns="http://www.w3.org/2000/svg">
<path d="M60.773 10.4994V25.7064H56.8403V23.785C56.3383 24.4438 55.6782 24.9653 54.86 25.3496C54.0605 25.7156 53.1866 25.8986 52.2383 25.8986C51.0296 25.8986 49.9605 25.6515 49.0308 25.1574C48.101 24.6451 47.3666 23.9039 46.8273 22.934C46.3067 21.9459 46.0464 20.7747 46.0464 19.4205V10.4994H49.9512V18.8715C49.9512 20.0793 50.258 21.0126 50.8716 21.6714C51.4852 22.3118 52.3219 22.6321 53.3818 22.6321C54.4603 22.6321 55.3063 22.3118 55.9199 21.6714C56.5335 21.0126 56.8403 20.0793 56.8403 18.8715V10.4994H60.773Z" fill="#1B3252"/>
<path d="M73.1883 10.2798C75.0292 10.2798 76.5167 10.8563 77.651 12.0091C78.7852 13.1437 79.3523 14.7358 79.3523 16.7853V25.7064H75.4475V17.3069C75.4475 16.0991 75.1407 15.175 74.5271 14.5345C73.9135 13.8757 73.0768 13.5463 72.0169 13.5463C70.9384 13.5463 70.0831 13.8757 69.4509 14.5345C68.8373 15.175 68.5305 16.0991 68.5305 17.3069V25.7064H64.6257V10.4994H68.5305V12.3934C69.0511 11.7346 69.7112 11.2223 70.5108 10.8563C71.3289 10.472 72.2214 10.2798 73.1883 10.2798Z" fill="#1B3252"/>
<path d="M85.0459 8.68775C84.3579 8.68775 83.7815 8.47731 83.3166 8.05641C82.8703 7.61722 82.6472 7.07738 82.6472 6.43689C82.6472 5.79641 82.8703 5.26571 83.3166 4.84482C83.7815 4.40563 84.3579 4.18604 85.0459 4.18604C85.7339 4.18604 86.301 4.40563 86.7472 4.84482C87.2121 5.26571 87.4445 5.79641 87.4445 6.43689C87.4445 7.07738 87.2121 7.61722 86.7472 8.05641C86.301 8.47731 85.7339 8.68775 85.0459 8.68775ZM86.9704 10.4994V25.7064H83.0656V10.4994H86.9704Z" fill="#1B3252"/>
<path d="M110.018 10.2798C111.914 10.2798 113.439 10.8563 114.592 12.0091C115.763 13.1437 116.349 14.7358 116.349 16.7853V25.7064H112.444V17.3069C112.444 16.1174 112.137 15.2116 111.524 14.5894C110.91 13.9489 110.073 13.6287 109.013 13.6287C107.954 13.6287 107.108 13.9489 106.475 14.5894C105.862 15.2116 105.555 16.1174 105.555 17.3069V25.7064H101.65V17.3069C101.65 16.1174 101.343 15.2116 100.73 14.5894C100.116 13.9489 99.2794 13.6287 98.2195 13.6287C97.141 13.6287 96.2857 13.9489 95.6535 14.5894C95.0399 15.2116 94.7331 16.1174 94.7331 17.3069V25.7064H90.8283V10.4994H94.7331V12.3385C95.2351 11.698 95.8766 11.1948 96.6576 10.8288C97.4571 10.4628 98.3311 10.2798 99.2794 10.2798C100.488 10.2798 101.566 10.536 102.515 11.0484C103.463 11.5425 104.198 12.2562 104.718 13.1895C105.22 12.3111 105.945 11.6065 106.894 11.0759C107.861 10.5452 108.902 10.2798 110.018 10.2798Z" fill="#1B3252"/>
<path d="M119.05 18.048C119.05 16.5109 119.357 15.1475 119.971 13.9581C120.603 12.7686 121.449 11.8536 122.509 11.2131C123.587 10.5726 124.786 10.2524 126.107 10.2524C127.26 10.2524 128.264 10.4811 129.119 10.9386C129.993 11.3961 130.69 11.9725 131.211 12.6679V10.4994H135.143V25.7064H131.211V23.483C130.709 24.1967 130.011 24.7914 129.119 25.2672C128.245 25.7247 127.232 25.9535 126.079 25.9535C124.777 25.9535 123.587 25.6241 122.509 24.9653C121.449 24.3065 120.603 23.3824 119.971 22.1929C119.357 20.9851 119.05 19.6035 119.05 18.048ZM131.211 18.1029C131.211 17.1696 131.025 16.3736 130.653 15.7148C130.281 15.0377 129.779 14.5253 129.147 14.1776C128.515 13.8117 127.836 13.6287 127.111 13.6287C126.386 13.6287 125.716 13.8025 125.103 14.1502C124.489 14.4979 123.987 15.0103 123.596 15.6874C123.225 16.3462 123.039 17.133 123.039 18.048C123.039 18.963 123.225 19.7682 123.596 20.4636C123.987 21.1407 124.489 21.6622 125.103 22.0282C125.735 22.3942 126.404 22.5772 127.111 22.5772C127.836 22.5772 128.515 22.4033 129.147 22.0557C129.779 21.6897 130.281 21.1773 130.653 20.5185C131.025 19.8414 131.211 19.0362 131.211 18.1029Z" fill="#1B3252"/>
<path d="M137.953 18.048C137.953 16.5109 138.26 15.1475 138.874 13.9581C139.506 12.7686 140.361 11.8536 141.44 11.2131C142.518 10.5726 143.717 10.2524 145.037 10.2524C146.042 10.2524 146.999 10.472 147.91 10.9112C148.821 11.3321 149.547 11.8993 150.086 12.613V5.39381H154.046V25.7064H150.086V23.4556C149.602 24.2059 148.924 24.8097 148.05 25.2672C147.176 25.7247 146.162 25.9535 145.01 25.9535C143.708 25.9535 142.518 25.6241 141.44 24.9653C140.361 24.3065 139.506 23.3824 138.874 22.1929C138.26 20.9851 137.953 19.6035 137.953 18.048ZM150.114 18.1029C150.114 17.1696 149.928 16.3736 149.556 15.7148C149.184 15.0377 148.682 14.5253 148.05 14.1776C147.418 13.8117 146.739 13.6287 146.014 13.6287C145.289 13.6287 144.619 13.8025 144.006 14.1502C143.392 14.4979 142.89 15.0103 142.499 15.6874C142.127 16.3462 141.942 17.133 141.942 18.048C141.942 18.963 142.127 19.7682 142.499 20.4636C142.89 21.1407 143.392 21.6622 144.006 22.0282C144.638 22.3942 145.307 22.5772 146.014 22.5772C146.739 22.5772 147.418 22.4033 148.05 22.0557C148.682 21.6897 149.184 21.1773 149.556 20.5185C149.928 19.8414 150.114 19.0362 150.114 18.1029Z" fill="#1B3252"/>
<g clip-path="url(#clip0_95_108)">
<path d="M30.4452 0.153534L21.123 4.65206C20.3403 5.03038 19.8421 5.8225 19.8421 6.68555V26.7486L16.3256 24.5673L12.809 26.7486V6.98112C12.809 5.93481 12.2101 4.98309 11.2672 4.52792L2.50843 0.301317C1.35206 -0.260259 0 0.585061 0 1.86782V19.3535C0 28.2383 6.98566 35.7575 15.8927 35.988C24.7997 36.2186 32.6512 28.853 32.6512 19.72V1.53087C32.6512 0.40181 31.4651 -0.337106 30.4452 0.153534Z" fill="#1B3252"/>
</g>
<path d="M133.65 32.42C134.043 32.4933 134.367 32.69 134.62 33.01C134.873 33.33 135 33.6967 135 34.11C135 34.4833 134.907 34.8133 134.72 35.1C134.54 35.38 134.277 35.6 133.93 35.76C133.583 35.92 133.173 36 132.7 36H129.69V29.02H132.57C133.043 29.02 133.45 29.0967 133.79 29.25C134.137 29.4033 134.397 29.6167 134.57 29.89C134.75 30.1633 134.84 30.4733 134.84 30.82C134.84 31.2267 134.73 31.5667 134.51 31.84C134.297 32.1133 134.01 32.3067 133.65 32.42ZM131.09 31.9H132.37C132.703 31.9 132.96 31.8267 133.14 31.68C133.32 31.5267 133.41 31.31 133.41 31.03C133.41 30.75 133.32 30.5333 133.14 30.38C132.96 30.2267 132.703 30.15 132.37 30.15H131.09V31.9ZM132.5 34.86C132.84 34.86 133.103 34.78 133.29 34.62C133.483 34.46 133.58 34.2333 133.58 33.94C133.58 33.64 133.48 33.4067 133.28 33.24C133.08 33.0667 132.81 32.98 132.47 32.98H131.09V34.86H132.5ZM137.516 30.15V31.9H139.866V33.01H137.516V34.86H140.166V36H136.116V29.01H140.166V30.15H137.516ZM146.188 29.02V30.15H144.328V36H142.928V30.15H141.068V29.02H146.188ZM151.49 34.67H148.71L148.25 36H146.78L149.29 29.01H150.92L153.43 36H151.95L151.49 34.67ZM151.11 33.55L150.1 30.63L149.09 33.55H151.11Z" fill="#1B3252"/>
<defs>
<clipPath id="clip0_95_108">
<rect width="32.6512" height="36" fill="white"/>
</clipPath>
</defs>
</svg>
